<?xml version="1.0" encoding="utf-8"?>
<!-- Generator: Adobe Illustrator 27.3.1, SVG Export Plug-In . SVG Version: 6.00 Build 0)  -->
<svg version="1.1" id="Layer_1" xmlns="http://www.w3.org/2000/svg" xmlns:xlink="http://www.w3.org/1999/xlink" x="0px" y="0px"
	 viewBox="0 0 2815.5 668.8" style="enable-background:new 0 0 2815.5 668.8;" xml:space="preserve">
<style type="text/css">
	.st0{fill:#FFFFFF;}
</style>
<path class="st0" d="M661.2,624.1H505.1l-47.8-115.2H197.1l-43.5,115.2H0L234.6,42.2h168.1L661.2,624.1z M320.8,181.3l-85.3,226.1
	h179.2L320.8,181.3z M1228.5,42.2h126.3v581.9h-145.1V260.7l-157,182.6h-22.2l-157-182.6v363.5H728.5V42.2h126.3l186.9,215.9
	L1228.5,42.2z M1722.3,42.2c212.4,0,321.6,132.2,321.6,291.8c0,167.2-105.8,290.1-337.9,290.1h-240.6V42.2L1722.3,42.2z
	 M1610.5,517.5h94.7c145.9,0,189.4-99,189.4-184.3c0-99.8-53.8-184.3-191.1-184.3h-93L1610.5,517.5L1610.5,517.5z M2815.5-2.7v665.9
	l-182.9-182.9v-300h-300.1L2149.6-2.7H2815.5z M2144,668.8h263.6l188.3-188.3h-263.6V216.9L2144,405.2V668.8z"/>
</svg>
