<?xml version="1.0" encoding="utf-8"?>
<!-- Generator: Adobe Illustrator 27.3.1, SVG Export Plug-In . SVG Version: 6.00 Build 0)  -->
<svg version="1.1" id="Layer_1" xmlns="http://www.w3.org/2000/svg" xmlns:xlink="http://www.w3.org/1999/xlink" x="0px" y="0px"
	 viewBox="0 0 408 168" style="enable-background:new 0 0 408 168;" xml:space="preserve">
<style type="text/css">
	.st0{fill-rule:evenodd;clip-rule:evenodd;fill:#FFFFFF;}
</style>
<g>
	<path class="st0" d="M350.95,113.34c0,7.23,2.22,11.54,8.76,13.63l19.19,1.11c11.54-2.09,14.05-1.95,20.03-17.39l2.37,0.42
		l-4.45,21h-71.62v-2.51c13.49,0,12.24-7.51,12.24-15.71V54.93c0-12.1,0-15.71-12.1-15.71v-2.64h38.11v2.64
		c-13.91,0-12.52,4.17-12.52,17.24V113.34L350.95,113.34z M204.37,113.9c0,12.1,0,15.71,12.1,15.71v2.51h-37.69v-2.51
		c12.1,0,12.1-3.61,12.1-15.71V54.93c0-12.1,0-15.71-12.1-15.71v-2.64h37.69v2.64c-12.1,0-12.1,3.62-12.1,15.71V113.9z
		 M280.44,90.67h-28.51l13.91-40.33L280.44,90.67z M282.67,96.24l5.15,15.86c1.25,2.92,3.48,7.78,3.48,10.98
		c0,5.01-3.62,6.26-9.74,6.54v2.51h36.16v-2.51c-10.71-0.41-11.96-8.62-15.57-17.24l-29.34-79.41c0,0-1.67-0.28-2.5,0.14
		c-0.84,0.42-0.42,1.39-3.48,3.34s-3.89,1.95-3.89,1.95s0.14,1.67,0,5.42c-0.28,3.89-1.39,5.98-1.39,5.98l-23.23,65.22
		c-4.31,10.15-5.56,13.77-15.02,14.6v2.51h31.99v-2.51c-5.42-0.41-11.96-0.69-12.1-6.12c-0.14-9.04,6.96-27.26,6.96-27.26
		L282.67,96.24L282.67,96.24L282.67,96.24z M389.61,30.46c0-4.73,3.61-8.34,8.2-8.34s8.2,3.62,8.2,8.34c0,4.87-3.61,8.34-8.2,8.34
		S389.61,35.32,389.61,30.46z M397.82,40.47c5.42,0,10.15-4.17,10.15-10.01s-4.73-10.01-10.15-10.01c-5.42,0-10.15,4.17-10.15,10.01
		S392.39,40.47,397.82,40.47z M395.73,31.29h1.95l3.06,5.01h1.95l-3.2-5.15c1.67-0.28,2.93-1.11,2.93-3.2
		c0-2.22-1.25-3.34-4.03-3.34h-4.45V36.3h1.81L395.73,31.29L395.73,31.29L395.73,31.29z M395.73,29.76v-3.62h2.37
		c1.25,0,2.5,0.28,2.5,1.67c0,1.81-1.25,1.95-2.78,1.95H395.73L395.73,29.76z M86.44,0c46.31,0,84,37.69,84,84
		c0,46.45-37.69,84-84,84c-46.45,0-84-37.55-84-84C2.44,37.69,39.99,0,86.44,0L86.44,0z M7.03,84c0,43.81,35.6,79.41,79.41,79.41
		s79.27-35.6,79.27-79.41S130.24,4.73,86.44,4.73S7.03,40.19,7.03,84L7.03,84z"/>
	<path class="st0" d="M86.44,17.8c-36.58,0-66.2,29.62-66.2,66.2c0,36.58,29.62,66.2,66.2,66.2c36.57,0,66.2-29.62,66.2-66.2
		C152.64,47.42,123.01,17.8,86.44,17.8L86.44,17.8z M120.65,127.53c0,2.78-2.36,5-5.15,5H59.46V56.32H49.31V36.99h66.2
		c2.78,0,5.15,2.37,5.15,5.15V127.53L120.65,127.53z"/>
	<path class="st0" d="M97.98,56.46H78.65v56.74h19.33c0.97,0,1.53-0.7,1.53-1.53V57.99C99.51,57.16,98.95,56.46,97.98,56.46
		L97.98,56.46z"/>
</g>
</svg>
