<?xml version="1.0" encoding="utf-8"?>
<!-- Generator: Adobe Illustrator 27.3.1, SVG Export Plug-In . SVG Version: 6.00 Build 0)  -->
<svg version="1.1" id="Layer_1" xmlns="http://www.w3.org/2000/svg" xmlns:xlink="http://www.w3.org/1999/xlink" x="0px" y="0px"
	 viewBox="0 0 481 93" style="enable-background:new 0 0 481 93;" xml:space="preserve">
<style type="text/css">
	.st0{fill:#FFFFFF;}
</style>
<path class="st0" d="M481,22.57v48.6h-16.2v-8.8c-1.4,3.3-3.5,5.9-6.3,7.6c-2.8,1.7-6.3,2.6-10.4,2.6c-3.7,0-6.9-0.9-9.6-2.7
	c-2.7-1.8-4.9-4.3-6.3-7.5s-2.2-6.8-2.2-10.8c0-4.1,0.7-7.8,2.4-11.2c1.6-3.3,3.9-5.9,6.8-7.7s6.3-2.8,10-2.8
	c7.7,0,12.9,3.4,15.6,10.3v-17.6H481z M462.4,57.47c1.7-1.7,2.5-3.8,2.5-6.4c0-2.5-0.8-4.6-2.4-6.2c-1.6-1.6-3.8-2.4-6.6-2.4
	c-2.7,0-4.9,0.8-6.6,2.4c-1.6,1.6-2.4,3.7-2.4,6.2s0.8,4.7,2.4,6.3s3.8,2.4,6.5,2.4C458.5,59.87,460.7,59.07,462.4,57.47
	L462.4,57.47z M427.1,32.37v14.6c-1.7-1.1-3.9-1.7-6.5-1.7c-3.5,0-6.2,1.1-8.1,3.3s-2.9,5.6-2.9,10.2v12.4h-16.2v-39.5h15.9v12.6
	c0.9-4.6,2.3-8,4.3-10.2s4.5-3.3,7.6-3.3C423.4,30.77,425.4,31.37,427.1,32.37L427.1,32.37z M348.6,69.67c-3.8-1.9-6.7-4.5-8.8-7.8
	c-2-3.3-3-7-3-11s1-7.7,3-10.8c2-3.2,4.9-5.7,8.7-7.5c3.8-1.8,8.3-2.7,13.6-2.7s9.8,0.9,13.6,2.7c3.8,1.8,6.7,4.3,8.7,7.4
	c2,3.2,3,6.8,3,10.9c0,4-1,7.7-3,11c-2,3.3-4.9,5.9-8.7,7.8c-3.8,1.9-8.3,2.8-13.5,2.8C356.9,72.47,352.4,71.57,348.6,69.67
	L348.6,69.67z M368.7,57.67c1.6-1.7,2.4-3.8,2.4-6.5s-0.8-4.8-2.4-6.5c-1.6-1.6-3.8-2.4-6.6-2.4c-2.8,0-5,0.8-6.6,2.4
	c-1.6,1.6-2.4,3.7-2.4,6.5c0,2.7,0.8,4.9,2.4,6.5s3.8,2.5,6.6,2.5S367.1,59.37,368.7,57.67z M301.5,69.67c-3.8-1.9-6.6-4.5-8.6-7.7
	s-2.9-6.9-2.9-10.9s1-7.7,3-10.9s4.9-5.7,8.8-7.5s8.4-2.7,13.8-2.7c6.6,0,12.1,1.4,16.5,4.3v12.4c-1.5-1.1-3.3-2-5.4-2.6
	c-2.1-0.7-4.2-1-6.6-1c-4.1,0-7.3,0.8-9.6,2.3c-2.3,1.5-3.5,3.5-3.5,6c0,2.4,1.1,4.4,3.4,6c2.2,1.5,5.5,2.3,9.8,2.3
	c2.2,0,4.4-0.3,6.5-1s4-1.5,5.5-2.4v12c-4.9,3-10.5,4.5-16.9,4.5C309.9,72.57,305.3,71.57,301.5,69.67L301.5,69.67z M254.6,71.07
	c-3.6-0.9-6.8-2.3-9.7-4.1v-11.2c2.2,1.7,5.1,3.1,8.7,4.2c3.6,1.1,7.2,1.7,10.6,1.7c1.6,0,2.8-0.2,3.6-0.6c0.8-0.4,1.2-0.9,1.2-1.5
	c0-0.7-0.2-1.2-0.7-1.7s-1.3-0.8-2.6-1.1l-8-1.8c-4.6-1.1-7.8-2.6-9.7-4.5s-2.9-4.4-2.9-7.5c0-2.6,0.8-4.9,2.5-6.8s4-3.4,7.2-4.5
	c3.1-1.1,6.7-1.6,10.9-1.6c3.7,0,7.1,0.4,10.2,1.2s5.6,1.8,7.7,3.1v10.6c-2.1-1.3-4.5-2.3-7.2-3s-5.5-1.1-8.4-1.1
	c-4.1,0-6.2,0.7-6.2,2.2c0,0.7,0.3,1.2,1,1.5s1.8,0.7,3.5,1l6.6,1.2c4.3,0.8,7.5,2.1,9.7,4s3.2,4.7,3.2,8.5c0,4.1-1.8,7.3-5.3,9.8
	c-3.5,2.4-8.5,3.6-14.9,3.6C261.9,72.57,258.2,72.07,254.6,71.07L254.6,71.07z M221.5,40.97c5,2.2,11.1,2.3,16.2,0v30.4h-16.2V40.97
	z M229.6,35.87c4.5,0,8.1-3.3,8.1-7.4s-3.6-7.4-8.1-7.4s-8.1,3.3-8.1,7.4S225.1,35.87,229.6,35.87z M161.4,23.87h25.9
	c6.2,0,11.5,1,15.8,3s7.5,4.7,9.7,8.3c2.1,3.5,3.2,7.6,3.2,12.1s-1.1,8.5-3.4,12.1c-2.2,3.6-5.6,6.5-10.2,8.6s-10.2,3.2-17,3.2h-24
	V23.87z M185.1,59.17c4.2,0,7.4-1.1,9.7-3.2c2.2-2.2,3.4-5.1,3.4-8.8c0-3.4-1-6.2-3-8.2s-5-3.1-9.1-3.1H178v23.3H185.1z
	 M119.6,77.57c-10.4,7.8-20.5,12.5-30.5,15.6c-2.5-3.3-4.6-7-6.5-10.7c3.6-1.4,7-3,10.3-5c-0.8-0.6-1.7-1.3-2.5-2
	c-19.6,9.2-41.1,9.2-60.8,0c-0.8,0.7-1.7,1.3-2.5,2c3.3,2,6.7,3.6,10.3,5c-1.9,3.8-4.1,7.3-6.5,10.7c-9.9-3.1-20-7.8-30.4-15.6
	c-2.1-22.8,2.1-45.9,17.8-69.6c7.6-3.6,16-6.3,24.7-7.8c1.1,1.9,2.3,4.5,3.2,6.6c9.1-1.4,18.2-1.4,27.5,0c0.8-2.1,2.1-4.7,3.2-6.6
	c8.7,1.5,17,4.2,24.8,7.8C115.3,28.27,122.1,51.17,119.6,77.57L119.6,77.57z M50.8,51.27c0.1-6.8-4.8-12.3-10.8-12.3
	s-10.8,5.5-10.8,12.3s4.9,12.3,10.8,12.3C46,63.57,50.8,57.97,50.8,51.27z M90.7,51.27c0.1-6.8-4.8-12.3-10.8-12.3
	s-10.8,5.5-10.8,12.3s4.9,12.3,10.8,12.3C86,63.57,90.7,57.97,90.7,51.27z"/>
</svg>
