<?xml version="1.0" encoding="utf-8"?>
<!-- Generator: Adobe Illustrator 27.3.1, SVG Export Plug-In . SVG Version: 6.00 Build 0)  -->
<svg version="1.1" id="Layer_1" xmlns="http://www.w3.org/2000/svg" xmlns:xlink="http://www.w3.org/1999/xlink" x="0px" y="0px"
	 viewBox="0 0 890.6 182.7" style="enable-background:new 0 0 890.6 182.7;" xml:space="preserve">
<style type="text/css">
	.st0{fill:#FFFFFF;}
</style>
<g>
	<path class="st0" d="M29.2,120.6c0,10.3,2.3,18.2,5.2,23c3.9,6.3,9.7,8.9,15.6,8.9c7.6,0,14.6-1.9,28-20.4
		c10.7-14.9,23.4-35.7,31.9-48.8l14.4-22.2c10-15.4,21.6-32.5,34.9-44.1c10.9-9.5,22.6-14.7,34.4-14.7c19.8,0,38.6,11.5,53.1,33
		c15.8,23.6,23.5,53.2,23.5,83.9c0,18.2-3.6,31.6-9.7,42.2c-5.9,10.2-17.4,20.4-36.7,20.4v-29.1c16.6,0,20.7-15.2,20.7-32.6
		c0-24.8-5.8-52.4-18.5-72c-9-14-20.8-22.5-33.7-22.5c-14,0-25.2,10.5-37.8,29.3c-6.7,10-13.6,22.1-21.3,35.8l-8.5,15.1
		c-17.1,30.3-21.4,37.2-30,48.6c-15,20-27.8,27.5-44.6,27.5c-20,0-32.6-8.7-40.4-21.7C3.1,149.4,0,135.4,0,119.6L29.2,120.6z"/>
	<path class="st0" d="M23,37.3c13.4-20.6,32.7-35,54.8-35c12.8,0,25.6,3.8,38.9,14.7c14.6,11.9,30.1,31.5,49.4,63.7l6.9,11.6
		c16.8,27.9,26.3,42.3,31.9,49.1c7.2,8.7,12.2,11.3,18.7,11.3c16.6,0,20.7-15.2,20.7-32.6l25.7-0.8c0,18.2-3.6,31.6-9.7,42.2
		c-5.9,10.2-17.4,20.4-36.7,20.4c-12,0-22.7-2.6-34.5-13.7c-9.1-8.5-19.6-23.7-27.8-37.3l-24.2-40.5c-12.2-20.3-23.3-35.5-29.8-42.3
		c-6.9-7.4-15.9-16.3-30.1-16.3c-11.5,0-21.3,8.1-29.5,20.5L23,37.3z"/>
	<path class="st0" d="M77.4,31.6c-11.5,0-21.3,8.1-29.5,20.5c-11.6,17.5-18.7,43.5-18.7,68.5c0,10.3,2.3,18.2,5.2,23L9.5,160
		C3.1,149.4,0,135.4,0,119.6c0-28.9,7.9-59,23-82.2c13.4-20.6,32.7-35,54.8-35L77.4,31.6z"/>
	<path class="st0" d="M326.9,7.9h33.8L418,111.8L475.4,7.9h33v170.6h-27.5V47.8l-50.3,90.5h-25.8l-50.3-90.5v130.8h-27.5V7.9z
		 M594.7,71.6c-19.7,0-31.6,14.9-34.5,33.3h67C625.9,85.9,614.9,71.6,594.7,71.6L594.7,71.6z M532.9,115.3c0-38.7,25-66.9,62.3-66.9
		c36.6,0,58.5,27.8,58.5,69v7.6h-93.5c3.3,20,16.6,33.5,38,33.5c17.1,0,27.8-5.2,37.9-14.7l14.6,17.9c-13.8,12.7-31.3,20-53.5,20
		C557,181.6,532.9,152.2,532.9,115.3z M687.1,74h-25.3V51.5h25.3V14.2h26.6v37.3h38.5V74h-38.5v57.1c0,19.5,6.2,26.4,21.6,26.4
		c7,0,11-0.6,16.9-1.6v22.3c-7.4,2.1-14.4,3-22.1,3c-28.7,0-43-15.7-43-47L687.1,74z M864,95.9c-5.3-13.5-17.2-23.4-34.7-23.4
		c-22.7,0-37.3,16.1-37.3,42.4c0,25.6,13.4,42.5,36.2,42.5c17.9,0,30.7-10.4,35.8-23.4V95.9z M890.6,178.6h-26.1v-17.8
		c-7.3,10.5-20.6,20.8-42,20.8c-34.6,0-57.6-28.9-57.6-66.7c0-38.1,23.6-66.5,59.1-66.5c17.5,0,31.3,7,40.6,19.4V51.5h26.1V178.6z"
		/>
</g>
</svg>
