<?xml version="1.0" encoding="utf-8"?>
<!-- Generator: Adobe Illustrator 27.3.1, SVG Export Plug-In . SVG Version: 6.00 Build 0)  -->
<svg version="1.1" id="Layer_1" xmlns="http://www.w3.org/2000/svg" xmlns:xlink="http://www.w3.org/1999/xlink" x="0px" y="0px"
	 viewBox="0 0 923.1 200.9" style="enable-background:new 0 0 923.1 200.9;" xml:space="preserve">
<style type="text/css">
	.st0{fill:#FFFFFF;}
</style>
<path class="st0" d="M325.9,117.3l-5.5,15.6h-0.5c-0.9-3.5-2.6-8.9-5.3-15.3l-29.5-74.1h-28.9v118.2h19.1V88.7c0-4.6,0-9.8-0.2-16.2
	c-0.2-3.2-0.5-5.7-0.6-7.5h0.5c0.9,4.6,2,7.9,2.8,10.1l35.5,86.2h13.5l35.2-87c0.8-2,1.5-6,2.3-9.3h0.5c-0.5,8.7-0.8,16.5-0.9,21.2
	v74.9H384v-118h-27.8L325.9,117.3z M403.2,76.5h19.9v84.7h-19.9V76.5z M413.3,40.7c-3.4,0-6.1,1.2-8.4,3.4c-2.3,2.1-3.5,4.9-3.5,8.3
	c0,3.2,1.2,6,3.5,8.1c2.3,2.1,5,3.2,8.4,3.2c3.4,0,6.3-1.2,8.4-3.2c2.3-2.1,3.5-4.9,3.5-8.1s-1.2-6-3.5-8.3
	C419.7,42,416.8,40.7,413.3,40.7 M493.6,75.7c-3.7-0.8-7.5-1.2-11.2-1.2c-9,0-17.3,2-24.2,6c-6.9,4-12.4,9.5-15.9,16.4
	c-3.7,7-5.5,15.1-5.5,24.5c0,8.1,1.8,15.3,5.3,21.9c3.5,6.4,8.4,11.6,15,15.1c6.3,3.5,13.6,5.3,21.9,5.3c9.5,0,17.6-2,24-5.7
	l0.2-0.2v-18.3l-0.8,0.6c-2.9,2.1-6.3,4-9.6,5c-3.5,1.2-6.7,1.8-9.5,1.8c-7.9,0-14.2-2.3-18.6-7.3c-4.6-4.9-6.9-11.6-6.9-20
	c0-8.7,2.3-15.6,7-20.6c4.7-5,11-7.6,18.6-7.6c6.4,0,13,2.1,19,6.4l0.8,0.6V79l-0.2-0.2C500.4,77.7,497.5,76.5,493.6,75.7
	 M559.1,75.1c-4.9,0-9.5,1.5-13.5,4.7c-3.4,2.8-5.7,6.7-7.6,11.5h-0.2V76.5H518v84.7h19.9v-43.3c0-7.3,1.5-13.5,4.9-17.9
	c3.4-4.6,7.6-6.9,12.8-6.9c1.8,0,3.7,0.5,6,0.8c2.1,0.6,3.7,1.2,4.7,2l0.8,0.6V76.7l-0.5-0.2C565.2,75.6,562.5,75.1,559.1,75.1
	 M613.2,74.7c-13.9,0-25.1,4.1-32.9,12.2c-7.9,8.1-11.8,19.3-11.8,33.3c0,13.1,4,23.8,11.6,31.6c7.6,7.6,18,11.6,31,11.6
	c13.6,0,24.5-4.1,32.3-12.4c7.9-8.3,11.8-19.3,11.8-32.9c0-13.5-3.7-24.2-11.2-31.9C636.9,78.5,626.4,74.7,613.2,74.7 M629.1,139.8
	c-3.7,4.7-9.5,7-16.7,7s-13-2.3-17.1-7.3c-4.1-4.7-6.1-11.6-6.1-20.3c0-9,2.1-15.9,6.1-20.8c4.1-4.9,9.8-7.3,17-7.3
	c7,0,12.5,2.3,16.5,7c4,4.7,6.1,11.6,6.1,20.6C634.6,127.9,633,135.1,629.1,139.8 M699.6,111.7c-6.3-2.6-10.2-4.6-12.1-6.3
	c-1.5-1.5-2.3-3.7-2.3-6.4c0-2.3,0.9-4.6,3.2-6.1s4.9-2.3,8.7-2.3c3.4,0,6.9,0.6,10.2,1.5c3.4,0.9,6.4,2.3,8.9,4.1l0.8,0.6V78.2
	l-0.5-0.2c-2.3-0.9-5.3-1.8-9-2.6c-3.7-0.6-7-0.9-9.8-0.9c-9.5,0-17.3,2.3-23.4,7.3c-6.1,4.7-9,11.2-9,18.6c0,4,0.6,7.5,2,10.4
	c1.4,2.9,3.4,5.7,6.1,7.9c2.8,2.1,6.7,4.6,12.2,6.9c4.6,2,8.1,3.5,10.2,4.7c2.1,1.2,3.5,2.6,4.6,3.7c0.8,1.2,1.2,2.8,1.2,4.7
	c0,5.7-4.3,8.4-13,8.4c-3.4,0-6.9-0.6-11-2c-4.1-1.4-7.9-3.4-11.2-5.7l-0.8-0.6v19.4l0.5,0.2c2.9,1.4,6.4,2.3,10.7,3.4
	c4.3,0.8,8.1,1.4,11.5,1.4c10.2,0,18.6-2.3,24.6-7.3c6.1-4.9,9.3-11.2,9.3-19.3c0-5.7-1.5-10.7-4.9-14.5
	C713.1,118.5,707.6,114.7,699.6,111.7 M774.8,74.7c-13.9,0-25.1,4.1-32.9,12.2c-7.8,8.1-11.8,19.3-11.8,33.3
	c0,13.1,4,23.8,11.6,31.6c7.6,7.6,18,11.6,31,11.6c13.6,0,24.5-4.1,32.3-12.4c7.9-8.3,11.8-19.3,11.8-32.9
	c0-13.5-3.7-24.2-11.2-31.9C798.5,78.5,788,74.7,774.8,74.7 M790.6,139.8c-3.7,4.7-9.5,7-16.7,7c-7.3,0-13-2.3-17.1-7.3
	c-4.1-4.7-6.1-11.6-6.1-20.3c0-9,2.1-15.9,6.1-20.8c4.1-4.9,9.8-7.3,17-7.3c6.9,0,12.5,2.3,16.5,7c4,4.7,6.1,11.6,6.1,20.6
	C796.4,127.9,794.4,135.1,790.6,139.8 M923.1,92.9V76.5h-20V51.4l-0.6,0.2l-19,5.7l-0.5,0.2v19.1h-30V65.8c0-4.9,1.2-8.7,3.4-11.2
	s5.3-3.7,9.3-3.7c2.8,0,5.7,0.6,8.9,2l0.8,0.5V36.2l-0.5-0.2c-2.8-0.9-6.4-1.5-11.2-1.5c-6,0-11.2,1.4-15.9,3.7
	c-4.7,2.6-8.3,6.1-10.9,10.9c-2.6,4.6-4,9.8-4,15.7v11.8h-13.9v16.2H833v68.5h20V92.9h30v43.6c0,17.9,8.4,26.9,25.2,26.9
	c2.8,0,5.7-0.5,8.4-0.9c2.9-0.6,5-1.4,6.3-2l0.2-0.2v-16.4l-0.8,0.6c-1.2,0.8-2.3,1.4-4.1,1.8c-1.5,0.5-2.9,0.6-4,0.6
	c-4,0-6.7-0.9-8.7-3.2c-1.8-2.1-2.8-5.7-2.8-10.9v-40H923.1z"/>
<path class="st0" d="M0,3.8h93.7v93.7H0V3.8z"/>
<path class="st0" d="M103.5,3.8h93.7v93.7h-93.7V3.8z"/>
<path class="st0" d="M0,107.2h93.7v93.7H0V107.2z"/>
<path class="st0" d="M103.5,107.2h93.7v93.7h-93.7V107.2z"/>
</svg>
