<?xml version="1.0" encoding="utf-8"?>
<!-- Generator: Adobe Illustrator 27.3.1, SVG Export Plug-In . SVG Version: 6.00 Build 0)  -->
<svg version="1.1" id="Layer_1" xmlns="http://www.w3.org/2000/svg" xmlns:xlink="http://www.w3.org/1999/xlink" x="0px" y="0px"
	 viewBox="0 0 493 93" style="enable-background:new 0 0 493 93;" xml:space="preserve">
<style type="text/css">
	.st0{fill:#FFFFFF;}
</style>
<g>
	<path class="st0" d="M301.35,17.69v61.5h17.4v-61.5H301.35z M164.85,17.59v61.5h17.5v-47.8l13.6,0.1c4.5,0,7.6,1.1,9.7,3.4
		c2.8,2.9,3.9,7.7,3.9,16.2v28.1h17v-34c0-24.3-15.5-27.5-30.6-27.5L164.85,17.59z M329.35,17.69v61.5h28.1c15,0,19.9-2.5,25.2-8.1
		c3.8-3.9,6.1-12.6,6.1-22c0-8.7-2-16.3-5.6-21.1c-6.4-8.6-15.6-10.2-29.5-10.2L329.35,17.69L329.35,17.69z M346.55,30.99h7.5
		c10.8,0,17.8,4.8,17.8,17.5s-7,17.5-17.8,17.5h-7.5V30.99z M276.35,17.69l-14.5,48.7l-13.8-48.7h-18.8l19.8,61.5h25l20-61.5H276.35
		z M396.85,79.09h17.4v-61.4h-17.4V79.09z M445.55,17.69l-24.2,61.4h17.1l3.9-10.9h28.6l3.6,10.8h18.6l-24.4-61.3H445.55z
		 M456.75,28.89l10.5,28.8h-21.4L456.75,28.89z"/>
	<path class="st0" d="M52.95,27.89v-8.4c0.8-0.1,1.7-0.1,2.5-0.1c23.1-0.7,38.3,19.9,38.3,19.9s-16.4,22.7-33.9,22.7
		c-2.3,0-4.6-0.3-6.8-1.1v-25.7c9,1.1,10.8,5,16.2,14.1l12-10.1c0,0-8.8-11.5-23.6-11.5C56.05,27.59,54.45,27.69,52.95,27.89
		 M52.95-0.01v12.6l2.5-0.2c32.1-1.1,53.1,26.4,53.1,26.4s-24.1,29.3-49.1,29.3c-2.2,0-4.3-0.2-6.5-0.6v7.8c1.8,0.2,3.6,0.3,5.4,0.3
		c23.3,0,40.2-11.9,56.6-26c2.7,2.2,13.8,7.5,16.1,9.7c-15.5,13-51.7,23.5-72.2,23.5c-2,0-3.8-0.1-5.7-0.3v11h88.7v-93.5H52.95z
		 M52.95,60.89v6.7c-21.6-3.9-27.6-26.4-27.6-26.4s10.4-11.5,27.6-13.3v7.3h-0.1c-9-1.1-16.1,7.3-16.1,7.3S40.75,56.69,52.95,60.89
		 M14.65,40.29c0,0,12.8-18.9,38.3-20.8v-6.9c-28.3,2.3-52.8,26.2-52.8,26.2s13.9,40.1,52.8,43.8v-7.3
		C24.35,71.79,14.65,40.29,14.65,40.29L14.65,40.29z"/>
</g>
</svg>
