<?xml version="1.0" encoding="utf-8"?>
<!-- Generator: Adobe Illustrator 27.3.1, SVG Export Plug-In . SVG Version: 6.00 Build 0)  -->
<svg version="1.1" id="Horizontal" xmlns="http://www.w3.org/2000/svg" xmlns:xlink="http://www.w3.org/1999/xlink" x="0px" y="0px"
	 viewBox="0 0 917.7 198.8" style="enable-background:new 0 0 917.7 198.8;" xml:space="preserve">
<style type="text/css">
	.st0{fill:#FFFFFF;}
</style>
<g id="g1377" transform="translate(-865.536 -658.033) scale(1.4152)">
	<path id="path1363" class="st0" d="M934.2,505c-8.2,0-16.3,3.1-22.2,9c-5.9,5.9-8.9,14-8.9,22.2c0,8.2,2.9,16.3,8.7,22.3
		c5.8,6,13.9,9.1,22.1,9.1c8.2,0,16.3-3.1,22.2-9s8.9-14,8.9-22.2c0-8.2-2.9-16.3-8.7-22.3C950.4,508.2,942.4,505,934.2,505z
		 M950.6,539.9c-0.2,1.1-0.6,2.2-0.9,3.4c-0.4,1-0.9,2.1-1.5,3s-1.2,1.8-2,2.5c-0.7,0.7-1.6,1.4-2.4,2.1c-0.9,0.6-1.9,1.1-2.9,1.5
		c-1,0.5-2.2,0.7-3.3,0.9c-1.1,0.2-2.3,0.3-3.5,0.3c-1.2,0-2.3-0.1-3.5-0.4c-1.1-0.2-2.2-0.6-3.3-0.9c-1-0.4-2-0.9-2.9-1.5
		c-0.8-0.6-1.7-1.3-2.4-2.1c-0.7-0.7-1.4-1.6-2-2.5c-0.6-0.9-1.1-2-1.5-3c-0.5-1.1-0.7-2.2-0.9-3.4c-0.2-1.2-0.3-2.4-0.3-3.7
		s0.1-2.4,0.4-3.7c0.2-1.1,0.6-2.2,0.9-3.4c0.4-1,0.9-2.1,1.5-3c0.6-0.9,1.2-1.8,2-2.5c0.7-0.7,1.6-1.4,2.4-2.1
		c0.9-0.6,1.9-1.1,2.9-1.5c1-0.5,2.2-0.7,3.3-0.9c1.1-0.2,2.3-0.3,3.5-0.3c1.2,0,2.3,0.1,3.5,0.4c1.1,0.2,2.2,0.6,3.3,0.9
		s2,0.9,2.9,1.5c0.8,0.6,1.7,1.3,2.4,2.1s1.4,1.6,2,2.5c0.6,0.9,1.1,2,1.5,3c0.5,1.1,0.7,2.2,0.9,3.4c0.2,1.2,0.3,2.4,0.3,3.7
		C950.9,537.5,950.8,538.7,950.6,539.9z"/>
	<path id="path1365" class="st0" d="M818.1,480.9c-8.1-6.6-17.6-11.1-27.8-13.6c-5.8-1.4-11.7-2.1-17.7-2.2
		c-4.4-0.2-8.9-0.1-13.3-0.1h-63c-4.4,0-8.9,0-13.3,0.1c-6,0.2-11.8,0.8-17.7,2.2c-10.2,2.4-19.6,7-27.7,13.6
		c-16.5,13.2-26,33.1-26,54.3c0,21.2,9.5,41.1,26,54.3c8.1,6.6,17.6,11.1,27.8,13.6c5.8,1.4,11.7,2.1,17.7,2.2
		c4.4,0.2,8.9,0.1,13.3,0.1h63c4.4,0,8.9,0,13.3-0.1c6-0.2,11.8-0.8,17.7-2.2c10.2-2.4,19.6-7,27.7-13.6c16.5-13.2,26-33.1,26-54.3
		C844.1,514,834.6,494.1,818.1,480.9z M787.3,554.1c-3.1,2.2-6.6,3.5-10.2,4c-3.7,0.6-7.4,0.5-11,0.5h-76.3c-3.7,0-7.4,0.1-11-0.5
		c-3.7-0.6-7.1-1.9-10.2-4c-6.2-4.3-9.9-11.3-9.9-18.9c0-7.6,3.7-14.6,9.9-18.9c3.1-2.2,6.6-3.5,10.2-4c3.7-0.6,7.4-0.5,11-0.5H766
		c3.7,0,7.4-0.1,11,0.5c3.7,0.6,7.1,1.9,10.2,4c6.2,4.3,9.9,11.3,9.9,18.9C797.3,542.8,793.6,549.8,787.3,554.1z"/>
	<path id="path1367" class="st0" d="M1186.5,534.5c0,1.7,0,3.4-0.1,5c-0.1,1-0.2,2.2-0.4,3.2c-0.4,2-1,3.8-2.1,5.5
		c-2.6,4.1-7.3,6.2-12,6.3c-4.8,0.1-9.4-1.9-11.9-6.2c-1-1.8-1.7-3.7-2.1-5.6c-0.5-2.6-0.7-5.4-0.7-8c0-1.8-0.1-3.5-0.1-5.2v-23.2
		h-14.2v24.2c0,2.3,0,4.7,0.1,7c0.1,1.7,0.1,3.5,0.3,5.1c0.4,4,1.1,8,2.9,11.7c3.7,7.6,11,12,19.2,12.9c4,0.5,8.1,0.1,12-1
		c3.7-1.1,7.7-3,10.4-5.9c0.1,1.9,0.3,3.9,0.4,5.8h12.4v-59.9h-14.2L1186.5,534.5z"/>
	<path id="path1369" class="st0" d="M1262.9,542.6c-2.1-5.8-7.1-9.4-12.4-11.4c-3-1.2-6.1-1.9-9.2-2.6c-1.4-0.3-2.7-0.6-4.1-0.9
		c-1.1-0.3-2.3-0.7-3.5-1.1c-1.2-0.6-2.4-1.2-3.3-2.2c-0.7-0.8-1.1-2-0.9-3.1c0.2-1.3,0.9-2.4,2-3.3c0.7-0.6,1.5-1,2.3-1.3
		c1.1-0.5,2.2-0.7,3.4-0.8c2.3-0.3,4.7-0.1,6.9,0.4c3.5,0.7,6.6,2.1,9.6,3.9c2.3-3.3,4.8-6.5,7.1-9.7c-4.8-3.5-10.1-5.6-15.9-6.6
		c-3.3-0.5-6.6-0.6-9.7-0.1c-2.5,0.4-5,0.9-7.3,2c-3.1,1.3-5.9,3.2-8,5.9c-1.6,1.9-2.7,4.1-3.4,6.5c-0.8,2.9-0.8,6,0.1,9
		c0.8,2.7,2.4,5,4.5,6.8c4.4,3.8,10.7,5.2,16,6.4c1.9,0.4,3.7,0.7,5.6,1.3c1.5,0.5,3.1,0.9,4.4,1.8c1,0.7,2.1,1.5,2.7,2.5
		c0.6,0.9,0.8,2,0.7,3c-0.1,1-0.5,1.9-1.1,2.7c-0.7,0.9-1.7,1.6-2.7,2.2c-1.4,0.7-2.9,1-4.4,1.2c-2.1,0.3-4.3,0.2-6.4-0.1
		c-2.3-0.3-4.5-0.8-6.7-1.6c-3.4-1.2-6.3-3-9.1-5.1l-7.6,10.1c4.5,3.7,9.6,6.5,15.3,8.1c3.1,0.8,6.3,1.4,9.5,1.5
		c2.6,0.1,5.1-0.1,7.8-0.5c3.3-0.6,6.6-1.6,9.5-3.4c2.2-1.3,3.9-2.9,5.5-4.9c2-2.5,3.2-5.5,3.7-8.7
		C1264,547.7,1263.8,545.1,1262.9,542.6L1262.9,542.6z"/>
	<path id="path1371" class="st0" d="M1011,553c-3.3,0.7-6.8,0.7-10.1-0.4c-3.3-1-6.1-3.1-8.1-5.9c-2-2.8-3-6.2-3.2-9.5
		c-0.2-3.4,0.5-6.9,2.1-9.9c1.7-3.2,4.1-5.3,7.4-6.7c1.4-0.6,2.8-1,4.3-1.2c2-0.3,3.7-0.4,5.7-0.1c3.5,0.4,6.6,1.7,9.5,3.6
		c2.9-3.7,5.7-7.3,8.6-10.9c-5-3.9-10.6-6.2-16.8-6.8c-6.1-0.7-12.4,0.3-18,2.9c-5.6,2.7-10.1,6.9-13.1,12.4
		c-2.9,5.4-4.1,11.7-3.8,17.8c0.3,6.1,2.2,12.2,5.7,17.2c3.6,5.1,8.6,8.8,14.5,10.8c5.8,2,12.2,2.3,18.2,1c6-1.3,11.6-4.2,15.9-8.7
		c-3.3-3.4-6.5-6.7-9.7-10.1C1017.4,550.6,1014.3,552.2,1011,553L1011,553z"/>
	<path id="rect1373" class="st0" d="M1112.8,474.4h15v91.7h-15V474.4z"/>
	<path id="path1375" class="st0" d="M1082.1,534.5c0,1.7,0,3.4-0.1,5c-0.1,1-0.2,2.2-0.4,3.2c-0.4,2-1,3.8-2.1,5.5
		c-2.6,4.1-7.3,6.2-12,6.3c-4.8,0.1-9.4-1.9-11.9-6.2c-1-1.8-1.7-3.7-2.1-5.6c-0.5-2.6-0.7-5.4-0.7-8c0-1.8-0.1-3.5-0.1-5.2v-23.2
		h-14.2v24.2c0,2.3,0,4.7,0.1,7c0.1,1.7,0.1,3.5,0.3,5.1c0.4,4,1.1,8,2.9,11.7c3.7,7.6,11,12,19.2,12.9c4,0.5,8.1,0.1,12-1
		c3.7-1.1,7.7-3,10.4-5.9c0.1,1.9,0.3,3.9,0.4,5.8h12.1v-59.9h-13.9L1082.1,534.5z"/>
</g>
</svg>
