<?xml version="1.0" encoding="utf-8"?>
<!-- Generator: Adobe Illustrator 27.3.1, SVG Export Plug-In . SVG Version: 6.00 Build 0)  -->
<svg version="1.1" id="Layer_1" xmlns="http://www.w3.org/2000/svg" xmlns:xlink="http://www.w3.org/1999/xlink" x="0px" y="0px"
	 viewBox="0 0 486 185.5" style="enable-background:new 0 0 486 185.5;" xml:space="preserve">
<style type="text/css">
	.st0{fill:#FFFFFF;}
</style>
<path class="st0" d="M182.56,93.25c0,50.31-40.75,91.06-91.06,91.06S0.44,143.56,0.44,93.25S41.19,2.19,91.5,2.19
	S182.56,42.94,182.56,93.25z M55.25,72.84h16.63c0.5,0,0.86-0.43,0.93-0.93c1.36-9.13,9.21-16.13,18.7-16.13s17.34,6.99,18.7,16.13
	c0.07,0.5,0.5,0.93,1,0.93h16.56c0.5,0,0.93-0.43,0.93-0.93c-1.43-19.27-17.56-34.47-37.18-34.47s-35.75,15.2-37.18,34.47
	C54.32,72.41,54.75,72.84,55.25,72.84L55.25,72.84z M109.41,107.38c10.78-5.92,18.34-16.98,19.27-29.9c0-0.5-0.43-0.93-0.93-0.93
	h-16.63c-0.5,0-0.86,0.43-0.93,0.93c-1.36,9.13-9.21,16.13-18.7,16.13s-17.34-6.99-18.7-16.13c-0.07-0.57-0.43-0.93-0.93-0.93H55.25
	c-0.5,0-0.93,0.43-0.93,0.93c0.93,12.92,8.49,23.98,19.27,29.9c-11.28,6.21-19.05,18.06-19.41,31.76c0,0.5,0.43,0.93,0.93,0.93
	h16.56c0.5,0,0.93-0.43,0.93-0.93c0.5-9.99,8.78-17.98,18.91-17.98s18.41,7.99,18.91,17.98c0,0.5,0.43,0.93,0.93,0.93h16.56
	c0.5,0,0.93-0.43,0.93-0.93C128.47,125.44,120.69,113.59,109.41,107.38L109.41,107.38z M255.21,103.1c0,5.5-5.64,7.35-8.92,7.35
	c-3.28,0-8.92-1.86-8.92-7.35V73.27c0-5.5,5.64-7.35,8.92-7.35c3.28,0,8.92,1.86,8.92,7.35V103.1z M246.29,51.5
	c-15.91,0.07-23.34,11.2-23.34,20.7v32.04c0,9.49,7.42,20.62,23.34,20.7c15.91-0.07,23.34-11.2,23.34-20.7V72.2
	C269.62,62.71,262.2,51.5,246.29,51.5L246.29,51.5z M348.48,123.58v-27.9h21.48V81.4h-21.41V67.2h24.91V52.79h-39.39v70.79H348.48z
	 M397.87,74.91l5.78,22.27h-11.63L397.87,74.91z M410.43,123.58h14.34L406,52.79h-16.77l-18.48,70.79h14.42l3.28-12.56h18.77
	L410.43,123.58z M308.45,88.11l18.27-35.33h-16.63l-9.99,20.62l-10.06-20.62h-16.63l18.34,35.33l-18.41,35.47h16.84l9.92-20.55
	l9.92,20.55h16.84L308.45,88.11z M471.08,52.79l-12.7,27.26l-12.85-27.26h-14.7v70.79h14.06V83.33l9.06,18.84h8.92l9.06-18.77v40.18
	H486V52.79L471.08,52.79z"/>
</svg>
