<?xml version="1.0" encoding="utf-8"?>
<!-- Generator: Adobe Illustrator 27.3.1, SVG Export Plug-In . SVG Version: 6.00 Build 0)  -->
<svg version="1.1" id="Layer_1" xmlns="http://www.w3.org/2000/svg" xmlns:xlink="http://www.w3.org/1999/xlink" x="0px" y="0px"
	 viewBox="0 0 923.1 146.8" style="enable-background:new 0 0 923.1 146.8;" xml:space="preserve">
<style type="text/css">
	.st0{fill:#FFFFFF;}
</style>
<g>
	<path id="a" class="st0" d="M61.2,101.2c1.2,3.2,0.8,7.2,0.2,9.7c-1,4.4-4,8.9-12.9,8.9c-8.3,0-13.3-4.8-13.3-11.9V95H0v10.1
		c0,29.4,23.2,38.3,47.9,38.3c23.8,0,43.5-8.1,46.7-30.2c1.6-11.5,0.4-18.9-0.2-21.5C88.8,64.2,38.9,55.9,35,40.4
		c-0.6-2.2-0.6-4.6-0.2-6.8c1-4.2,3.8-8.9,12.1-8.9c7.7,0,12.3,4.8,12.3,11.9v8.3h33v-9.3c0-28.8-25.8-33.4-44.5-33.4
		C24.2,2.2,5,10,1.6,31.6c-1,5.8-1,11.1,0.4,17.7C7.7,76.3,54.4,84.1,61.2,101.2"/>
	<path class="st0" d="M141.3,6.4l-24.6,132.1h35.6l18.1-119.8h0.6l17.5,119.8h35.4L199.9,6.4H141.3z M340.7,6.4l-16.3,100.9h-0.8
		L307.2,6.4h-53.8l-2.8,131.9h33l0.8-118.6h0.8l21.9,118.6h33.4l22.1-118.6h0.8l0.8,118.6h33L394.6,6.4L340.7,6.4z"/>
	<g transform="translate(138.47 -.08)">
		<path id="a_00000005262831039057303080000004045453403120883086_" class="st0" d="M341.7,100.8c1.2,3.2,0.8,7.2,0.2,9.7
			c-1,4.4-4,8.9-12.9,8.9c-8.3,0-13.3-4.8-13.3-11.9V94.7h-35.4v10.1c0,29.4,23.2,38.3,47.9,38.3c23.8,0,43.5-8.1,46.7-30.2
			c1.6-11.5,0.4-18.9-0.2-21.5c-5.6-27.6-55.6-35.8-59.4-51.3c-0.6-2.2-0.6-4.6-0.2-6.8c1-4.2,3.8-8.9,12.1-8.9
			c7.7,0,12.3,4.8,12.3,11.9v8.3h33v-9.3c0-28.8-25.8-33.2-44.5-33.2c-23.6,0-42.7,7.9-46.1,29.4c-1,5.8-1,11.1,0.4,17.7
			C288,76,334.9,83.8,341.7,100.8"/>
	</g>
	<path class="st0" d="M582.1,118.2c9.3,0,12.1-6.2,12.7-9.5c0.2-1.4,0.4-3.4,0.4-5V6.1h33.4v94.6c0,2.8,0,5.8-0.4,8.7
		c-2.4,24.6-21.7,32.6-46.1,32.6c-24.4,0-43.7-8.1-46.1-32.6c0-1.2-0.4-6.2-0.4-8.7V6.1H569v97.6c0,1.8,0,3.6,0.4,5
		C570,112,572.8,118.2,582.1,118.2 M743.3,6.1l1.8,103.5h-0.8L714.2,6.1h-48.9v130.7h32.4l-1.8-107.3h0.8l32.4,107.3H776V6.1H743.3z
		 M857.1,117c9.5,0,12.9-6,13.5-9.7c0.2-1.4,0.4-3.2,0.4-5V83.2h-13.5V64.1h46.7v35.4c0,2.4,0,4.2-0.4,8.7
		c-2.2,24-23,32.6-46.3,32.6s-44.3-8.7-46.3-32.6c-0.4-4.4-0.4-6.2-0.4-8.7V44c0-2.4,0.4-6.4,0.6-8.7c3-24.8,23-32.6,46.3-32.6
		s43.9,7.9,46.3,32.6c0.4,4.2,0.4,8.7,0.4,8.7v4.2h-33.2v-7.4c0,0,0-3-0.4-5c-0.6-2.8-3-9.7-13.3-9.7c-9.7,0-12.5,6.4-13.1,9.7
		c-0.4,1.8-0.6,4-0.6,6.2v60.4c0,1.6,0,3.6,0.4,5C844.2,111,847.6,117,857.1,117"/>
</g>
</svg>
